# xmcd CD database file
#
# Track frame offsets:
#	150
#	17440
#	41517
#	53817
#	79710
#	104322
#	136107
#	172660
#	216042
#	241765
#	261552
#	289435
#
# Disc length: 4614 seconds
#
# Revision: 15
# Processed by: cddbd v1.5.2PL0 Copyright (c) Steve Scherf et al.
# Submitted via: CDex 1.70beta2
#
DISCID=9b12040c
DTITLE=斉藤和義 - 十二月
DYEAR=1999
DGENRE=Rock
TTITLE0=tokyo blues
TTITLE1=Hey! Mr.Angryman
TTITLE2=空に星が綺麗
TTITLE3=郷愁
TTITLE4=彼女
TTITLE5=君が百回嘘ついても
TTITLE6=歌うたいのバラッド
TTITLE7=引っ越し
TTITLE8=月影
TTITLE9=FIRE DOG
TTITLE10=僕の踵はなかなか減らない
TTITLE11=ソファ
EXTD=YEAR: 1999
EXTT0=
EXTT1=
EXTT2=
EXTT3=
EXTT4=
EXTT5=
EXTT6=
EXTT7=
EXTT8=
EXTT9=
EXTT10=
EXTT11=
PLAYORDER=
